/* XPM */
static const char *const BaseballDraft_xpm[] = {
/* columns rows colors chars-per-pixel */
"32 32 102 2",
"   c #020202",
".  c #0A0A0A",
"X  c #101010",
"o  c #1B1B1B",
"O  c #232323",
"+  c #2A2A2A",
"@  c gray19",
"#  c #3D3D3D",
"$  c #444444",
"%  c #4B4B4B",
"&  c #535353",
"*  c #5D5D5D",
"=  c #6B4F4F",
"-  c #665A5A",
";  c #6A5F5F",
":  c #715757",
">  c #7D5B5B",
",  c #636363",
"<  c #6B6B6B",
"1  c #767676",
"2  c #7C7C7C",
"3  c #9B2E2E",
"4  c #933E3E",
"5  c #A43232",
"6  c #AC3C3C",
"7  c #924545",
"8  c #974949",
"9  c #9A4B4B",
"0  c #985353",
"q  c #AF4040",
"w  c #B44545",
"e  c #B34C4C",
"r  c #B94B4B",
"t  c #AD5D5D",
"y  c #BE5D5D",
"u  c #806060",
"i  c #846B6B",
"p  c #8C6C6C",
"a  c #966060",
"s  c #9D6464",
"d  c #827676",
"f  c #8F7272",
"g  c #8C7E7E",
"h  c #937575",
"j  c #9F7171",
"k  c #A56161",
"l  c #AD6262",
"z  c #A36D6D",
"x  c #AA6868",
"c  c #B46565",
"v  c #B96464",
"b  c #B26A6A",
"n  c #BD7E7E",
"m  c #C46666",
"M  c #C67171",
"N  c #838383",
"B  c #8B8282",
"V  c #8B8B8B",
"C  c #938B8B",
"Z  c #949393",
"A  c #9E9393",
"S  c #9B9B9B",
"D  c #A18282",
"F  c #AC8080",
"G  c #AE8A8A",
"H  c #B48787",
"J  c #BD8080",
"K  c #A89D9D",
"L  c #B39797",
"P  c #B89494",
"I  c #B59898",
"U  c #A3A3A3",
"Y  c #AAA4A4",
"T  c #ACACAC",
"R  c #B4ACAC",
"E  c #B4B4B4",
"W  c #BBBBBB",
"Q  c #D78383",
"!  c #CA9494",
"~  c #C19C9C",
"^  c #C89A9A",
"/  c #D59D9D",
"(  c #DA9C9C",
")  c #DDA2A2",
"_  c #C2B3B3",
"`  c #C1BFBF",
"'  c #CDBABA",
"]  c #DEBBBB",
"[  c #C4C3C3",
"{  c #CCC7C7",
"}  c #CBCBCB",
"|  c #D9C3C3",
" . c #D0CACA",
".. c #DCCBCB",
"X. c #D3D3D3",
"o. c #DBDBDB",
"O. c #E4C0C0",
"+. c #E4E4E4",
"@. c gray92",
"#. c #F4F4F4",
"$. c #FDFDFD",
"%. c None",
/* pixels */
"%.%.%.%.%.%.%.%.%.%.%.%.      . .       %.%.%.%.%.%.%.%.%.%.%.%.",
"%.%.%.%.%.%.%.%.%.  X * U X.#.$.$.#.X.U * X   %.%.%.%.%.%.%.%.%.",
"%.%.%.%.%.%.    o Z #.$.$.$.$.$.$.$.$.$.$.#.Z o     %.%.%.%.%.%.",
"%.%.%.%.%.  & o.#.$.$.$.$.$.$.$.$.$.$.$.$.$.$.#.X.&   %.%.%.%.%.",
"%.%.%.%.%.@ @.U / X.#.#.#.#.#.#.#.#.#.#.#.#.{ ) Y #.O %.%.%.%.%.",
"%.%.%.%.. A Q w ! #.#.#.#.#.#.#.#.#.#.#.#.#.#.J r Q S . %.%.%.%.",
"%.%.%.  U X.o.+.S ] [ @.@.@.@.@.@.@.@.@.@.W O.U +.o.o.U   %.%.%.",
"%.%.  , +.+.o.( e M +.+.+.+.+.+.@.@.@.@.@.+.v e ( o.@.@.,   %.%.",
"%.%.o X.+.+.W ' { S ..[ +.+.+.+.+.+.+.+.` ..S  .' [ +.+.o.o %.%.",
"%.  N o.o.o.o.o.| k m X.o.o.o.o.o.o.o.o.X.y x | o.o.o.o.o.N   %.",
"%.. } o.o.o.o.T J F E o.o.o.o.o.o.o.o.o.o.Y H n R o.o.o.o.X.. %.",
"%.% X.X.X.X.X.X.X.} Z ~ W X.X.X.X.X.X.W ^ Z X.X.X.X.X.X.X.X.% %.",
"  N } } } } } [ G y 5 ~ } } } } } } } { P 5 y G } } } } } } N   ",
"  Y { { } } } { [ [ V } } } } } } } } } { V [ [ } } } } } } Y   ",
"  W [ [ [ [ [ [ R _ V _ R [ [ [ [ [ [ R _ V _ R [ [ [ [ [ [ W   ",
"  W W W W W W W K t 3 b R W W W W W W T l 3 c Y W W W W W W W   ",
"  E W W W W W W W W N W W W W W W W W W W 2 W W W W W W W W W   ",
"  T E E E E E Y z c i L T E E E E E E T I i v j T E E E E E T   ",
"  Z T T T T T T T h 9 D Y T T T T T T U D 7 D T T T T T T T Z   ",
"  < T T T T Y A Y 1 Y T T T T T T T T T T S 2 Y A T T T T T <   ",
"%.# U U U U U C 6 u U U U U U U U U U U U U > q A U U U U U # %.",
"%.. S S S S S S d 8 a S U U U U U U U U Z a 7 B U S U U U S . %.",
"%.  * S S S p z < S S S S S S S S S S S S S S < z h S S S *   %.",
"%.%.X V Z Z Z 7 3 s Z Z Z Z Z Z Z Z Z Z Z Z s 3 0 Z Z Z Z X %.%.",
"%.%.  # V f C , N N V Z Z Z Z Z Z Z Z Z Z V V N , C f Z #   %.%.",
"%.%.%.  * d 5 ; V V V V V V V V V V V V V V V V - 5 g ,   %.%.%.",
"%.%.%.%.  2 = 4 p N N N N N N N N N N N N N N p 4 : 1   %.%.%.%.",
"%.%.%.%.  $ * N 2 N N N N N N N N N N N N N N 2 N & # %.%.%.%.%.",
"%.%.%.%.%.  O $ 1 2 2 2 2 2 2 2 2 2 2 2 2 2 2 1 $ o   %.%.%.%.%.",
"%.%.%.%.%.%.%.  . $ 1 1 1 1 1 1 1 1 1 1 1 1 $ .   %.%.%.%.%.%.%.",
"%.%.%.%.%.%.%.%.%.  . + % * < 1 1 < * % + .   %.%.%.%.%.%.%.%.%.",
"%.%.%.%.%.%.%.%.%.%.%.%.                %.%.%.%.%.%.%.%.%.%.%.%."
};
