/* XPM */
static char *baseballicon___[] = {
/* columns rows colors chars-per-pixel */
"16 16 138 2",
"   c #0C0C0C",
".  c #101010",
"X  c #111111",
"o  c #161616",
"O  c gray9",
"+  c #181818",
"@  c #191919",
"#  c #1B1B1B",
"$  c gray11",
"%  c #1D1D1D",
"&  c #2A2A2A",
"*  c #2F2F2F",
"=  c #313131",
"-  c #353434",
";  c #363535",
":  c gray22",
">  c #3F3F3F",
",  c gray25",
"<  c gray29",
"1  c #4B4B4B",
"2  c #4C4C4C",
"3  c gray32",
"4  c #5A5A5A",
"5  c #5B5B5B",
"6  c gray37",
"7  c #5F5F5F",
"8  c #765A5A",
"9  c #775B5B",
"0  c #606060",
"q  c #646464",
"w  c #656565",
"e  c gray47",
"r  c #797979",
"t  c gray48",
"y  c #7F7F7F",
"u  c #815F5F",
"i  c #915757",
"p  c #925959",
"a  c #806060",
"s  c #8E6464",
"d  c #8F6666",
"f  c #956D6D",
"g  c #807575",
"h  c #837979",
"j  c #837C7C",
"k  c #847C7C",
"l  c #997272",
"z  c #A57373",
"x  c #A67575",
"c  c #848484",
"v  c #898989",
"b  c gray55",
"n  c #8D8D8D",
"m  c #8E8E8E",
"M  c #9F8383",
"N  c #9C8E8E",
"B  c #9C8F8F",
"V  c #9E8F8F",
"C  c #939393",
"Z  c gray58",
"A  c #979797",
"S  c #999090",
"D  c #9E9090",
"F  c #9E9595",
"G  c #989898",
"H  c gray60",
"J  c #9E9A9A",
"K  c #A38787",
"L  c #AB8585",
"P  c #AD8888",
"I  c #BD8484",
"U  c #BD8585",
"Y  c #A09E9E",
"T  c #B29191",
"R  c #B29292",
"E  c #B49595",
"W  c #B69898",
"Q  c #BC9A9A",
"!  c #BC9C9C",
"~  c #A0A0A0",
"^  c gray63",
"/  c #A2A2A2",
"(  c gray64",
")  c #A9A5A5",
"_  c #AAA7A7",
"`  c #A9A9A9",
"'  c #AAAAAA",
"]  c gray67",
"[  c #ACACAC",
"{  c gray68",
"}  c #B9A1A1",
"|  c #BBA4A4",
" . c #B7AAAA",
".. c #B9ADAD",
"X. c gray70",
"o. c gray71",
"O. c #B6B6B6",
"+. c #B7B7B7",
"@. c #B8B5B5",
"#. c #B9B7B7",
"$. c gray75",
"%. c #C79696",
"&. c #CB9B9B",
"*. c #C3A8A8",
"=. c #C6ABAB",
"-. c #CBAEAE",
";. c #CFB3B3",
":. c #D4B7B7",
">. c #D9BEBE",
",. c #C0C0C0",
"<. c #C1C1C1",
"1. c #C8C8C8",
"2. c #CBC9C9",
"3. c #CACACA",
"4. c #CBCBCB",
"5. c gray80",
"6. c #CDCCCC",
"7. c #D2CCCC",
"8. c #D0CFCF",
"9. c #D3CECE",
"0. c #DDCCCC",
"q. c #DECECE",
"w. c #D0D0D0",
"e. c gray82",
"r. c LightGray",
"t. c gray83",
"y. c #D5D5D5",
"u. c gray84",
"i. c #DDDBDB",
"p. c #DFDFDF",
"a. c gray88",
"s. c #E1E1E1",
"d. c #EAEAEA",
"f. c #F4F4F4",
"g. c gray96",
"h. c #FBFBFB",
"j. c #FDFDFD",
"k. c None",
/* pixels */
"k.k.k.k.k.$ 6 y y 6 % k.k.k.k.k.",
"k.k.k.2 ` h.j.j.j.j.h.` < k.k.k.",
"k.k.; %.>.f.f.f.f.f.g.:.&.- k.k.",
"k.# w.0.U p.d.d.d.d.i.I q.r.$ k.",
"k.C p.7.} ;.a.a.a.a.-.| 9.s.Z k.",
"o r.y.2.*...e.u.u.8. .=.6.u.t.O ",
"< 4.4.1.Q P 4.5.5.3.L ! 4.5.5.1 ",
"7 ,.,.$.E x #.<.<.@.z W <.<.<.0 ",
"4 O.O.X.T B o.O.O.o.N R O.+.+.5 ",
"> ] [ ) S K ' [ [ ` M F _ { { , ",
"X ~ / J i D / / / / V p Y ( ^ X ",
"k.q A f d A G G G G G s l H w k.",
"k.. g a v n m m m m b v u h X k.",
"k.k.= 8 j c c c c c c k 9 * k.k.",
"k.k.k.@ 3 e t t t t r 3 + k.k.k.",
"k.k.k.k.k.  & : : &   k.k.k.k.k."
};
